<svg id="visual" viewBox="0 0 540 960" width="540" height="960" xmlns="http://www.w3.org/2000/svg" xmlns:xlink="http://www.w3.org/1999/xlink" version="1.1"><rect x="0" y="0" width="540" height="960" fill="#001220"></rect><defs><linearGradient id="grad1_0" x1="0%" y1="100%" x2="100%" y2="0%"><stop offset="30%" stop-color="#001220" stop-opacity="1"></stop><stop offset="70%" stop-color="#001220" stop-opacity="1"></stop></linearGradient></defs><defs><linearGradient id="grad2_0" x1="0%" y1="100%" x2="100%" y2="0%"><stop offset="30%" stop-color="#001220" stop-opacity="1"></stop><stop offset="70%" stop-color="#001220" stop-opacity="1"></stop></linearGradient></defs><g transform="translate(540, 960)"><path d="M-486 0C-480.5 -63.7 -475 -127.4 -449 -186C-423 -244.5 -376.7 -298 -322.4 -322.4C-268.2 -346.9 -206.2 -342.5 -151.2 -364.9C-96.1 -387.4 -48.1 -436.7 0 -486L0 0Z" fill="#0b62e4"></path></g><g transform="translate(0, 0)"><path d="M486 0C451.1 51.6 416.3 103.2 398.2 164.9C380.1 226.7 378.8 298.7 343.7 343.7C308.5 388.6 239.3 406.7 176.4 425.9C113.5 445.1 56.7 465.6 0 486L0 0Z" fill="#0b62e4"></path></g></svg>